# xmcd
#
# Track frame offsets:
#	150
#	19323
#	30815
#	39888
#	46966
#	56539
#	72478
#	78435
#	90713
#	103612
#	118337
#	129633
#	142334
#	149692
#	161027
#	175909
#	186614
#	191061
#	197110
#	206125
#
# Disc length: 2877 seconds
#
# Revision: 1
# Processed by: cddbd v1.5.1PL0 Copyright (c) Steve Scherf et al.
# Submitted via: audiograbber 1.83.01
#
DISCID=360b3b14
DTITLE=Leuberg-Edition - Chinderliedli zum lose und mitsinge
DYEAR=2002
DGENRE=Kinderlieder
TTITLE0=Bärenlied... düü, dää ich chume
TTITLE1=Chömed alli
TTITLE2=Das Steckenpferd
TTITLE3=Trompete ... Lueg ich bin en Elefant
TTITLE4=s'Nilpferd
TTITLE5=Die Affen rasen ...
TTITLE6=Caffee
TTITLE7=Alle Vöglein sind schon da - Kuckuck - Fuchs du hast die Gans gestohlen - 
TTITLE7=Weisst du wie viel Sternlein stehen
TTITLE8=Es klappert die Mühle - Hänschen klein - Hänsel und Gretel - Kommt ein Vog
TTITLE8=el geflogen - Ein Männlein steht im Walde - Das Wandern ist des Müllers L
TTITLE8=ust
TTITLE9=Es wott es Fäueli z'Märit gah
TTITLE10=Der Kuckuck und der Esel
TTITLE11=Mues immer de plogeti Hansli sy
TTITLE12=Weisch wieviel Bei
TTITLE13=Mir Hase
TTITLE14=Fuchs heiss ich ...
TTITLE15=Bäärebluus
TTITLE16=Chline Brunbär ... Munggeli Bume
TTITLE17=Wer hat die schönsten Schäfchen
TTITLE18=Schlaflied
TTITLE19=Lars's Heimweh Melodie
EXTD=
EXTT0=
EXTT1=
EXTT2=
EXTT3=
EXTT4=
EXTT5=
EXTT6=
EXTT7=
EXTT8=
EXTT9=
EXTT10=
EXTT11=
EXTT12=
EXTT13=
EXTT14=
EXTT15=
EXTT16=
EXTT17=
EXTT18=
EXTT19=
PLAYORDER=
